<?xml version="1.0" encoding="utf-8"?>
<!-- Generator: Adobe Illustrator 27.0.0, SVG Export Plug-In . SVG Version: 6.00 Build 0)  -->
<svg version="1.1" id="Vrstva_1" xmlns="http://www.w3.org/2000/svg" xmlns:xlink="http://www.w3.org/1999/xlink" x="0px" y="0px"
	 viewBox="0 0 283.5 283.5" style="enable-background:new 0 0 283.5 283.5;" xml:space="preserve">
<style type="text/css">
	.st0{fill:#1D1D1B;}
</style>
<g>
	<path class="st0" d="M151.5,165.9c-10.4,11.1-19.8,22.9-23.2,38.1c-1.9,8.3-2.7,16.8,1.8,24.7c1.2,2,2.9,3.9,4.8,5.3
		c3.1,2.1,6.9,0.2,6.9-3.5c0-2.9-0.5-6.1-1.6-8.7c-1.8-4.3-3.8-8.6-6.5-12.3c-2.5-3.5-1.2-6.3,0.3-10.1c2.4,3.7,4.8,6.7,6.3,10.2
		c2.6,5.6,5,11.3,6.7,17.3c1.2,4.2,0.3,8.5-3.4,11.7c-3.3,2.9-8.2,3.2-11.9,0.8c-6.3-4-8.7-10.4-9.7-17.2c-1.8-12,0.9-23.3,6.5-34
		c4.8-9.3,11.2-17.4,18.2-24.9c-3.8-2.5-7.7-4.8-11.1-7.5c-11.6-9.2-16.2-21.7-16.1-36.1c0-4.4,1.1-8.8,1.5-13.3
		c0.5-5.1,1-10.2,1.4-15.4c0.7-9.9,6.5-15.8,16.5-16c5.3-0.1,10.1-1.3,14.7-3.8c2.6-1.4,5.6-2.1,8.6-2.6c5.2-1,9.5,0.9,13.1,4.6
		c0.6,0.6,2,1,2.8,0.8c5-1.2,9.9-1.1,14.4,1.4c4.4,2.3,8.8,3.6,13.9,3.1c5.9-0.5,10.3,2.4,12.7,7.9c1.6,3.7,4,6.5,7.5,8.6
		c8.5,5.3,11.1,11.5,9.4,21.5c-0.1,0.8,0.6,2.2,1.3,2.6c8.2,3.8,13,13.2,9.6,23c-1.2,3.4-2.4,6.8-3.1,10.3c-0.5,2.7-0.6,5.7-0.1,8.4
		c1.1,6.9-0.6,11.3-10.2,13.2c-3.7,0.7-7.6,0.8-11.2,1.8c-4.2,1.2-8.1,3.2-12.1,4.8c-21.3,8.8-43.3,3.5-58.2-14.1
		C152,166,151.9,166,151.5,165.9z M195.3,161.6c5.8-1.8,12.1-5.8,17.8-10.7c3-2.6,2.7-4.2-1.1-5.4c-2.5-0.8-5.2-0.9-7.7-1.4
		c-3.3-0.7-7.2-0.8-9.6-2.7c-3-2.4-6-3.5-9.6-4c-1.5-0.2-3.1-0.5-4.6-0.9c-5.2-1.2-8.9-4.4-12.4-8.3c-1.5-1.7-3.2-3.9-5.2-4.4
		c-4.7-1-7.3-4-9.4-7.9c-1.7-3.1-3.3-6.2-5.5-8.9c-2.8-3.4-4.6-3-6.4,0.9c-4.4,9.6-4.7,19.7-2,29.6c3.6,13.2,11.5,22.8,25.4,26.1
		C174.9,166,184.5,165.2,195.3,161.6z M195.6,130.8c1-0.9,1.6-1.4,2.1-1.9c8.5-8.3,18.4-13.2,30.5-12.7c1.8,0.1,2.4-0.7,2.7-2.2
		c1.2-4.8-0.8-9.7-5.8-13.3c-4.3-3.1-8.6-6-10.6-11.2c-1.7-4.4-5.1-6-9.7-5.6c-4.7,0.4-9.2-0.6-13.4-3c-3.8-2.2-8-2.6-12.5-1.5
		c3.7,11.8,1.8,22.9-2.7,34.1C187.6,113.8,193.4,120,195.6,130.8z M164.1,169.9c0.9,0.6,1.8,1.3,2.7,1.9c14.9,8.8,30,8.3,45.5,1.3
		c3.9-1.8,8.2-2.8,12.4-3.9c3.6-0.9,7.2-1.3,10.8-2.1c2.4-0.5,3.7-2.2,3.1-4.7c-1.6-7.8,0.4-15.2,2.9-22.5
		c2.3-6.5,0.3-11.5-5.5-15.3c-2-1.3-3.2-1.4-4.7,0.7c-3.2,4.5-7.7,7.7-12.7,9.9c-3.1,1.4-6.4,2.3-9.9,3.5c0.9,0.2,1.6,0.4,2.4,0.6
		c4.1,0.9,8.2,2.5,9.3,6.9c1.1,4.3-1.8,7.3-4.9,9.9C200.5,168.3,183.6,173,164.1,169.9z M171.3,76.2c-2.4-0.9-4.3-2.2-6.1-2
		c-3.2,0.3-6.5,1.1-9.4,2.3c-5.1,2.2-10.2,4-15.9,3.9c-7.6-0.2-11.1,3.4-11.9,11c-0.6,6-1.2,12-2.2,17.9c-1.8,10.7-1.5,21,4.1,30.7
		c2.6,4.5,5.8,8.5,10.6,12.2c-1.1-1.9-1.7-3-2.4-4.2c-5.9-11.3-6.5-23.3-3.5-35.4c0.9-3.7,2.9-7.4,5.1-10.6c2.3-3.3,6.3-3.6,9.5-1.2
		c2,1.5,3.8,3.4,5.2,5.4c1.6,2.2,2.7,4.7,4.4,7.7C155.8,100.5,156.9,88.5,171.3,76.2z M174.1,81.7c-10.4,6.4-15.7,23-7.5,34.7
		c2.5-0.5,4.3-1.4,4.9-4.4c0.8-3.9,2.4-7.6,3.3-11.4C176.1,94.3,175.7,88.1,174.1,81.7z M169.9,121.3c4.7,7,14.8,12.3,20.6,10.9
		C188.5,121.2,179.5,116.4,169.9,121.3z M200.9,133.8c9.5-1.5,18.7-3.7,25.4-11.5C215.9,121.9,208.1,127.1,200.9,133.8z"/>
	<path class="st0" d="M121.1,183.3c-4.9-4.9-9.9-9.8-15.1-14.5c-2.3-2-3.4-4.1-2.8-7.1c0.4-1.9-0.3-3.1-2.2-3.8
		c-5-1.8-6-4.4-3.9-9.4c4.5-10.5,3.9-20.1-3.9-29.2c-7.8-9.2-23.8-13.7-34.4-9c-6.5,2.9-11,8.3-14.5,14.2c-1.7,2.8-2.8,6.3-3,9.5
		c-0.8,9.4,1.9,17.9,7.6,25.3c6.2,8,14.3,11.9,24.5,9.6c3.1-0.7,6.1-2.3,9.1-3.6c5.1-2.2,6.1-1.8,8.7,3.3c0.5,1.1,2.3,2.6,3,2.3
		c4.3-1.4,7.1,1.1,9.7,3.7c6.3,6,12.4,12.2,18.7,18.4C125.2,187.8,125.3,187.5,121.1,183.3z M56.1,159.1c-6.1-5.7-10-12.8-11-21.4
		C51,152,60,161.6,73.9,164.5C67.5,165.8,61.5,164.2,56.1,159.1z M64,152.3c-7.1-7.1-12.9-15.2-16.9-24.5
		c10.2,16.1,21,27.8,33.2,33.1C75.7,161.2,70.3,158.6,64,152.3z M73.7,144.7c-7.9-7-14.8-15.5-20.6-24.2
		c12.9,15.3,23.9,28.1,36.1,33.8C85.5,153.1,81.4,151.5,73.7,144.7z M91.5,147.4c-5.6-12.4-17.7-22.8-34.4-32
		c9.6,3.4,18,8.8,25.4,15.6C88.9,137,91.7,142.4,91.5,147.4z M62.9,113c8.6,0.4,16.3,3.3,23.2,8.1c6.1,4.2,9,9.1,9.2,14.4
		C89.4,124.2,78,117.2,62.9,113z"/>
	<path class="st0" d="M58.2,106.8c-0.4-2.2-1.1-4.3-1.6-6.5c-0.4,0.1-0.8,0.1-1.2,0.2c-1,2-2.1,3.9-3.3,6.2c-1.1-0.4-1.9-0.8-2.8-1
		c-0.6-0.2-1.4-0.1-2.1-0.2c-0.3,0.6-0.7,1.3-0.8,1.9c-0.1,1.1,0.1,2.2,0.1,3.6c-2-0.1-3.3-0.2-4.8-0.1c-0.7,0-1.5,0.4-2.3,0.6
		c0,0.5-0.2,1.1-0.1,1.6c0.3,0.9,0.8,1.8,1.4,2.8c-1.7,0.4-3.2,0.7-4.6,1.2c-0.8,0.3-1.8,0.8-2.2,1.4c-0.2,0.3,0.4,0.8,0.8,1.1
		c0.6,0.5,1.2,1,2,1.6c-2,0.9-3.3,1.4-4.6,2.1c-0.8,0.4-1.3,1.1-2,1.7c0.6,0.2,1.1,0.7,1.8,0.6c2-0.1,4.2-0.5,6.3-0.6
		c1.5-0.1,2.3-0.7,3-1.8c3.7-5.4,8.7-10.2,15.2-14.5C57.2,108.3,58.2,107.3,58.2,106.8z"/>
</g>
</svg>
