<svg xmlns="http://www.w3.org/2000/svg" xmlns:xlink="http://www.w3.org/1999/xlink" width="500" zoomAndPan="magnify" viewBox="0 0 375 374.999991" height="500" preserveAspectRatio="xMidYMid meet" version="1.0"><defs><clipPath id="63942ce3a9"><path d="M 21.480469 14.324219 L 359.730469 14.324219 L 359.730469 360.824219 L 21.480469 360.824219 Z M 21.480469 14.324219 " clip-rule="nonzero"/></clipPath><clipPath id="8794c3fc97"><path d="M 0.480469 43 L 285 43 L 285 346.824219 L 0.480469 346.824219 Z M 0.480469 43 " clip-rule="nonzero"/></clipPath><clipPath id="f894369d2d"><rect x="0" width="339" y="0" height="347"/></clipPath></defs><g clip-path="url(#63942ce3a9)"><g transform="matrix(1, 0, 0, 1, 21, 14)"><g clip-path="url(#f894369d2d)"><g clip-path="url(#8794c3fc97)"><path fill="#1d1d1b" d="M -34.21875 342.242188 C -14.695312 322.71875 5.222656 303.199219 25.941406 284.472656 C 35.105469 276.503906 39.488281 268.136719 37.097656 256.183594 C 35.503906 248.613281 38.292969 243.832031 45.863281 241.046875 C 65.78125 233.875 69.765625 223.515625 61.398438 203.59375 C 43.472656 161.761719 45.863281 123.511719 76.9375 87.257812 C 108.015625 50.605469 171.761719 32.675781 213.992188 51.402344 C 239.890625 62.953125 257.816406 84.46875 271.761719 107.976562 C 278.535156 119.128906 282.917969 133.074219 283.714844 145.824219 C 286.902344 183.273438 276.144531 217.140625 253.433594 246.621094 C 228.734375 278.496094 196.460938 294.035156 155.824219 284.871094 C 143.472656 282.082031 131.519531 275.707031 119.570312 270.527344 C 99.25 261.761719 95.265625 263.355469 84.90625 283.675781 C 82.914062 288.058594 75.742188 294.035156 72.953125 292.839844 C 55.824219 287.261719 44.667969 297.222656 34.308594 307.578125 C 9.207031 331.484375 -15.09375 356.1875 -40.195312 380.886719 C -50.554688 360.171875 -50.953125 358.976562 -34.21875 342.242188 Z M 224.75 245.824219 C 249.050781 223.117188 264.589844 194.828125 268.574219 160.566406 C 245.070312 217.539062 209.210938 255.785156 153.832031 267.339844 C 179.332031 272.519531 203.234375 266.144531 224.75 245.824219 Z M 193.273438 218.734375 C 221.5625 190.445312 244.671875 158.175781 260.605469 121.121094 C 219.96875 185.265625 176.941406 231.882812 128.332031 252.996094 C 146.660156 254.191406 168.175781 243.832031 193.273438 218.734375 Z M 154.628906 188.453125 C 186.101562 160.566406 213.59375 126.699219 236.703125 92.039062 C 185.308594 152.996094 141.480469 203.992188 92.875 226.703125 C 107.617188 221.921875 123.949219 215.546875 154.628906 188.453125 Z M 83.710938 199.210938 C 106.023438 149.808594 154.230469 108.375 220.765625 71.71875 C 182.519531 85.265625 149.050781 106.78125 119.570312 133.871094 C 94.070312 157.777344 82.914062 179.289062 83.710938 199.210938 Z M 197.65625 62.15625 C 163.394531 63.75 132.714844 75.304688 105.226562 94.429688 C 80.921875 111.164062 69.367188 130.683594 68.570312 151.800781 C 92.078125 106.78125 137.496094 78.890625 197.65625 62.15625 Z M 197.65625 62.15625 " fill-opacity="1" fill-rule="nonzero"/></g><path fill="#1d1d1b" d="M 216.382812 37.457031 C 217.976562 28.691406 220.765625 20.324219 222.757812 11.558594 C 224.351562 11.957031 225.945312 11.957031 227.539062 12.355469 C 231.523438 20.324219 235.90625 27.894531 240.6875 37.058594 C 245.070312 35.464844 248.253906 33.871094 251.839844 33.074219 C 254.230469 32.277344 257.417969 32.675781 260.207031 32.277344 C 261.402344 34.667969 262.996094 37.457031 263.394531 39.847656 C 263.792969 44.230469 262.996094 48.613281 262.996094 54.1875 C 270.964844 53.792969 276.144531 53.394531 282.121094 53.792969 C 284.910156 53.792969 288.097656 55.382812 291.285156 56.179688 C 291.285156 58.171875 292.082031 60.5625 291.683594 62.554688 C 290.488281 66.140625 288.496094 69.726562 286.105469 73.710938 C 292.878906 75.304688 298.855469 76.5 304.433594 78.492188 C 307.621094 79.6875 311.601562 81.679688 313.195312 84.070312 C 313.992188 85.265625 311.601562 87.257812 310.011719 88.453125 C 307.621094 90.445312 305.230469 92.4375 302.042969 94.828125 C 310.011719 98.414062 315.1875 100.40625 320.367188 103.195312 C 323.554688 104.789062 325.546875 107.578125 328.335938 109.96875 C 325.945312 110.765625 323.953125 112.757812 321.164062 112.359375 C 313.195312 111.960938 304.433594 110.367188 296.066406 109.96875 C 290.089844 109.570312 286.902344 107.179688 284.113281 102.796875 C 269.371094 81.28125 249.449219 62.15625 223.554688 45.027344 C 220.367188 43.433594 216.382812 39.449219 216.382812 37.457031 Z M 216.382812 37.457031 " fill-opacity="1" fill-rule="nonzero"/></g></g></g></svg>